<svg xmlns="http://www.w3.org/2000/svg" viewBox="0 0 1200 400" width="1200" height="400">
  <defs>
    <linearGradient id="bg" x1="0%" y1="0%" x2="100%" y2="100%">
      <stop offset="0%" style="stop-color:#0a0a0a"/>
      <stop offset="50%" style="stop-color:#111111"/>
      <stop offset="100%" style="stop-color:#0d0d0d"/>
    </linearGradient>
    <radialGradient id="glow1" cx="20%" cy="60%" r="35%">
      <stop offset="0%" style="stop-color:#E74C3C;stop-opacity:0.15"/>
      <stop offset="100%" style="stop-color:#E74C3C;stop-opacity:0"/>
    </radialGradient>
    <radialGradient id="glow2" cx="35%" cy="30%" r="25%">
      <stop offset="0%" style="stop-color:#E74C3C;stop-opacity:0.1"/>
      <stop offset="100%" style="stop-color:#E74C3C;stop-opacity:0"/>
    </radialGradient>
  </defs>
  <rect width="1200" height="400" fill="url(#bg)"/>
  <rect width="1200" height="400" fill="url(#glow1)"/>
  <rect width="1200" height="400" fill="url(#glow2)"/>

  <circle cx="542" cy="257" r="3.8" fill="white" opacity="0.3"/>
  <circle cx="177" cy="229" r="2.0" fill="white" opacity="0.5"/>
  <circle cx="110" cy="261" r="3.8" fill="white" opacity="0.7"/>
  <circle cx="537" cy="193" r="1.2" fill="white" opacity="0.3"/>
  <circle cx="115" cy="106" r="1.5" fill="white" opacity="0.5"/>
  <circle cx="198" cy="96" r="2.5" fill="white" opacity="0.8"/>
  <circle cx="448" cy="316" r="1.1" fill="white" opacity="0.5"/>
  <circle cx="611" cy="111" r="1.6" fill="white" opacity="0.4"/>
  <circle cx="80" cy="218" r="2.6" fill="white" opacity="0.8"/>
  <circle cx="225" cy="65" r="3.2" fill="white" opacity="0.7"/>
  <circle cx="212" cy="200" r="1.3" fill="white" opacity="0.6"/>
  <circle cx="77" cy="276" r="3.6" fill="white" opacity="0.5"/>
  <circle cx="154" cy="355" r="1.3" fill="white" opacity="0.5"/>
  <circle cx="521" cy="316" r="2.9" fill="white" opacity="0.2"/>
  <circle cx="402" cy="40" r="3.7" fill="white" opacity="0.5"/>
  <circle cx="505" cy="230" r="2.6" fill="white" opacity="0.5"/>
  <circle cx="361" cy="298" r="3.8" fill="white" opacity="0.8"/>
  <circle cx="67" cy="162" r="3.4" fill="white" opacity="0.7"/>
  <circle cx="449" cy="302" r="1.5" fill="white" opacity="0.5"/>
  <circle cx="478" cy="68" r="1.6" fill="white" opacity="0.4"/>
  <circle cx="408" cy="310" r="2.2" fill="white" opacity="0.7"/>
  <circle cx="404" cy="221" r="1.2" fill="white" opacity="0.3"/>
  <circle cx="312" cy="326" r="3.9" fill="white" opacity="0.2"/>
  <circle cx="352" cy="36" r="2.9" fill="white" opacity="0.8"/>
  <circle cx="280" cy="202" r="1.9" fill="white" opacity="0.4"/>
  <circle cx="181" cy="104" r="1.8" fill="white" opacity="0.7"/>
  <circle cx="319" cy="126" r="3.6" fill="white" opacity="0.3"/>
  <circle cx="524" cy="43" r="1.8" fill="white" opacity="0.2"/>
  <circle cx="111" cy="245" r="1.1" fill="white" opacity="0.3"/>
  <circle cx="235" cy="106" r="3.0" fill="white" opacity="0.8"/>
  <circle cx="128" cy="249" r="1.8" fill="white" opacity="0.9"/>
  <circle cx="198" cy="263" r="2.5" fill="white" opacity="0.4"/>
  <circle cx="178" cy="111" r="2.3" fill="white" opacity="0.6"/>
  <circle cx="101" cy="211" r="2.5" fill="white" opacity="0.5"/>
  <circle cx="343" cy="182" r="3.1" fill="white" opacity="0.3"/>
  <circle cx="532" cy="293" r="1.1" fill="white" opacity="0.7"/>
  <circle cx="439" cy="133" r="2.1" fill="white" opacity="0.7"/>
  <circle cx="392" cy="366" r="1.6" fill="white" opacity="0.7"/>
  <circle cx="87" cy="94" r="2.3" fill="white" opacity="0.6"/>
  <circle cx="61" cy="215" r="1.3" fill="white" opacity="0.6"/>
  <circle cx="333" cy="50" r="2.6" fill="white" opacity="0.6"/>
  <circle cx="92" cy="218" r="1.6" fill="white" opacity="0.5"/>
  <circle cx="476" cy="64" r="2.5" fill="white" opacity="0.3"/>
  <circle cx="248" cy="200" r="2.8" fill="white" opacity="0.8"/>
  <circle cx="391" cy="54" r="1.6" fill="white" opacity="0.5"/>
  <circle cx="420" cy="289" r="3.6" fill="white" opacity="0.3"/>
  <circle cx="241" cy="365" r="3.2" fill="white" opacity="0.3"/>
  <circle cx="616" cy="221" r="1.6" fill="white" opacity="0.7"/>
  <circle cx="49" cy="314" r="2.7" fill="white" opacity="0.9"/>
  <circle cx="506" cy="343" r="1.2" fill="white" opacity="0.2"/>
  <circle cx="534" cy="80" r="1.1" fill="white" opacity="0.5"/>
  <circle cx="285" cy="177" r="2.8" fill="white" opacity="0.6"/>
  <circle cx="312" cy="132" r="1.9" fill="white" opacity="0.8"/>
  <circle cx="218" cy="238" r="2.8" fill="white" opacity="0.4"/>
  <circle cx="61" cy="172" r="2.9" fill="white" opacity="0.4"/>
  <circle cx="491" cy="230" r="2.1" fill="white" opacity="0.6"/>
  <circle cx="136" cy="160" r="1.2" fill="white" opacity="0.2"/>
  <circle cx="259" cy="278" r="3.5" fill="white" opacity="0.8"/>
  <circle cx="369" cy="365" r="3.8" fill="white" opacity="0.3"/>
  <circle cx="457" cy="219" r="2.1" fill="white" opacity="0.4"/>

  <line x1="305" y1="241" x2="392" y2="239" stroke="white" stroke-width="0.5" opacity="0.15"/>
  <line x1="414" y1="120" x2="486" y2="96" stroke="white" stroke-width="0.5" opacity="0.15"/>
  <line x1="195" y1="69" x2="250" y2="126" stroke="white" stroke-width="0.5" opacity="0.15"/>
  <line x1="313" y1="84" x2="396" y2="72" stroke="white" stroke-width="0.5" opacity="0.15"/>
  <line x1="556" y1="246" x2="654" y2="311" stroke="white" stroke-width="0.5" opacity="0.15"/>
  <line x1="60" y1="65" x2="165" y2="141" stroke="white" stroke-width="0.5" opacity="0.15"/>
  <line x1="313" y1="319" x2="408" y2="309" stroke="white" stroke-width="0.5" opacity="0.15"/>
  <line x1="229" y1="296" x2="306" y2="345" stroke="white" stroke-width="0.5" opacity="0.15"/>
  <line x1="160" y1="307" x2="207" y2="269" stroke="white" stroke-width="0.5" opacity="0.15"/>
  <line x1="406" y1="240" x2="477" y2="308" stroke="white" stroke-width="0.5" opacity="0.15"/>
  <line x1="501" y1="345" x2="616" y2="267" stroke="white" stroke-width="0.5" opacity="0.15"/>
  <line x1="99" y1="240" x2="208" y2="312" stroke="white" stroke-width="0.5" opacity="0.15"/>
  <line x1="215" y1="323" x2="297" y2="346" stroke="white" stroke-width="0.5" opacity="0.15"/>
  <line x1="271" y1="146" x2="343" y2="167" stroke="white" stroke-width="0.5" opacity="0.15"/>
  <line x1="198" y1="168" x2="239" y2="125" stroke="white" stroke-width="0.5" opacity="0.15"/>

  <line x1="650" y1="60" x2="650" y2="340" stroke="white" stroke-width="0.5" opacity="0.15"/>
  <text x="680" y="155" font-family="'SF Pro Display','Helvetica Neue',Arial,sans-serif" font-size="38" font-weight="800" fill="white" letter-spacing="2">LLM & AGENT INTERVIEW</text>
  <text x="680" y="200" font-family="'SF Pro Display','Helvetica Neue',Arial,sans-serif" font-size="16" font-weight="400" fill="white" opacity="0.85" letter-spacing="2">LLM & AGENT INTERVIEW</text>
  <text x="680" y="230" font-family="'Noto Sans SC','PingFang SC','Microsoft YaHei',sans-serif" font-size="15" font-weight="300" fill="white" opacity="0.6" letter-spacing="1.5">21 个专题 · 380+ 道题 · 41000+ 行 · 面试全覆盖</text>
  <text x="680" y="275" font-family="'SF Mono','Fira Code','Consolas',monospace" font-size="13" fill="white" opacity="0.45" letter-spacing="1.5">VitePress · Markdown</text>
  <line x1="680" y1="305" x2="1140" y2="305" stroke="white" stroke-width="0.5" opacity="0.15"/>
  <text x="680" y="330" font-family="'SF Mono','Fira Code','Consolas',monospace" font-size="11" fill="white" opacity="0.35" letter-spacing="1">LLM · AGENT · INTERVIEW · AI ENGINEER</text>
</svg>