<svg xmlns="http://www.w3.org/2000/svg" viewBox="0 0 1200 400" width="1200" height="400">
  <defs>
    <linearGradient id="bg" x1="0%" y1="0%" x2="100%" y2="100%">
      <stop offset="0%" style="stop-color:#0a0a0a"/>
      <stop offset="50%" style="stop-color:#111111"/>
      <stop offset="100%" style="stop-color:#0d0d0d"/>
    </linearGradient>
    <radialGradient id="glow1" cx="20%" cy="60%" r="35%">
      <stop offset="0%" style="stop-color:#E74C3C;stop-opacity:0.15"/>
      <stop offset="100%" style="stop-color:#E74C3C;stop-opacity:0"/>
    </radialGradient>
    <radialGradient id="glow2" cx="35%" cy="30%" r="25%">
      <stop offset="0%" style="stop-color:#E74C3C;stop-opacity:0.1"/>
      <stop offset="100%" style="stop-color:#E74C3C;stop-opacity:0"/>
    </radialGradient>
  </defs>
  <rect width="1200" height="400" fill="url(#bg)"/>
  <rect width="1200" height="400" fill="url(#glow1)"/>
  <rect width="1200" height="400" fill="url(#glow2)"/>

  <circle cx="444" cy="85" r="1.7" fill="white" opacity="0.5"/>
  <circle cx="561" cy="178" r="1.9" fill="white" opacity="0.6"/>
  <circle cx="194" cy="158" r="1.6" fill="white" opacity="0.3"/>
  <circle cx="221" cy="178" r="2.9" fill="white" opacity="0.3"/>
  <circle cx="210" cy="77" r="3.0" fill="white" opacity="0.7"/>
  <circle cx="210" cy="358" r="2.2" fill="white" opacity="0.4"/>
  <circle cx="515" cy="178" r="2.3" fill="white" opacity="0.5"/>
  <circle cx="376" cy="290" r="2.3" fill="white" opacity="0.8"/>
  <circle cx="511" cy="130" r="2.1" fill="white" opacity="0.3"/>
  <circle cx="212" cy="369" r="2.8" fill="white" opacity="0.6"/>
  <circle cx="406" cy="76" r="2.3" fill="white" opacity="0.3"/>
  <circle cx="238" cy="81" r="2.1" fill="white" opacity="0.4"/>
  <circle cx="550" cy="260" r="1.9" fill="white" opacity="0.7"/>
  <circle cx="163" cy="44" r="1.7" fill="white" opacity="0.5"/>
  <circle cx="598" cy="242" r="3.1" fill="white" opacity="0.6"/>
  <circle cx="173" cy="253" r="2.4" fill="white" opacity="0.6"/>
  <circle cx="319" cy="309" r="2.2" fill="white" opacity="0.5"/>
  <circle cx="463" cy="349" r="2.3" fill="white" opacity="0.4"/>
  <circle cx="428" cy="351" r="2.4" fill="white" opacity="0.7"/>
  <circle cx="166" cy="221" r="3.0" fill="white" opacity="0.6"/>
  <circle cx="180" cy="299" r="2.9" fill="white" opacity="0.7"/>
  <circle cx="442" cy="93" r="3.1" fill="white" opacity="0.7"/>
  <circle cx="379" cy="331" r="2.0" fill="white" opacity="0.8"/>
  <circle cx="568" cy="369" r="2.7" fill="white" opacity="0.5"/>
  <circle cx="387" cy="236" r="3.5" fill="white" opacity="0.6"/>
  <circle cx="501" cy="355" r="1.7" fill="white" opacity="0.4"/>
  <circle cx="217" cy="191" r="1.8" fill="white" opacity="0.6"/>
  <circle cx="461" cy="340" r="2.1" fill="white" opacity="0.5"/>
  <circle cx="203" cy="156" r="3.3" fill="white" opacity="0.6"/>
  <circle cx="334" cy="357" r="1.9" fill="white" opacity="0.3"/>
  <circle cx="614" cy="220" r="2.8" fill="white" opacity="0.4"/>
  <circle cx="90" cy="147" r="2.5" fill="white" opacity="0.5"/>
  <circle cx="276" cy="139" r="2.6" fill="white" opacity="0.7"/>
  <circle cx="374" cy="33" r="3.5" fill="white" opacity="0.5"/>
  <circle cx="179" cy="252" r="2.7" fill="white" opacity="0.5"/>
  <circle cx="122" cy="162" r="2.0" fill="white" opacity="0.6"/>
  <circle cx="238" cy="36" r="3.3" fill="white" opacity="0.3"/>
  <circle cx="333" cy="87" r="2.9" fill="white" opacity="0.7"/>
  <circle cx="512" cy="260" r="2.3" fill="white" opacity="0.4"/>
  <circle cx="308" cy="87" r="3.3" fill="white" opacity="0.7"/>
  <circle cx="597" cy="361" r="1.8" fill="white" opacity="0.4"/>
  <circle cx="395" cy="170" r="2.6" fill="white" opacity="0.5"/>
  <circle cx="98" cy="242" r="2.9" fill="white" opacity="0.5"/>
  <circle cx="184" cy="309" r="1.5" fill="white" opacity="0.3"/>
  <circle cx="230" cy="261" r="2.3" fill="white" opacity="0.3"/>
  <circle cx="483" cy="129" r="3.3" fill="white" opacity="0.4"/>
  <circle cx="462" cy="288" r="2.1" fill="white" opacity="0.5"/>
  <circle cx="165" cy="212" r="2.4" fill="white" opacity="0.6"/>
  <circle cx="502" cy="71" r="3.1" fill="white" opacity="0.6"/>
  <circle cx="307" cy="366" r="2.1" fill="white" opacity="0.3"/>

  <line x1="358" y1="279" x2="438" y2="241" stroke="white" stroke-width="0.5" opacity="0.12"/>
  <line x1="114" y1="293" x2="164" y2="249" stroke="white" stroke-width="0.5" opacity="0.12"/>
  <line x1="315" y1="280" x2="377" y2="314" stroke="white" stroke-width="0.5" opacity="0.12"/>
  <line x1="256" y1="57" x2="353" y2="56" stroke="white" stroke-width="0.5" opacity="0.12"/>
  <line x1="241" y1="165" x2="332" y2="206" stroke="white" stroke-width="0.5" opacity="0.12"/>
  <line x1="84" y1="256" x2="167" y2="250" stroke="white" stroke-width="0.5" opacity="0.12"/>
  <line x1="173" y1="223" x2="260" y2="186" stroke="white" stroke-width="0.5" opacity="0.12"/>
  <line x1="288" y1="159" x2="387" y2="108" stroke="white" stroke-width="0.5" opacity="0.12"/>
  <line x1="222" y1="334" x2="298" y2="282" stroke="white" stroke-width="0.5" opacity="0.12"/>
  <line x1="160" y1="281" x2="234" y2="340" stroke="white" stroke-width="0.5" opacity="0.12"/>
  <line x1="160" y1="318" x2="245" y2="268" stroke="white" stroke-width="0.5" opacity="0.12"/>
  <line x1="220" y1="296" x2="308" y2="254" stroke="white" stroke-width="0.5" opacity="0.12"/>

  <line x1="650" y1="60" x2="650" y2="340" stroke="white" stroke-width="0.5" opacity="0.15"/>
  <text x="680" y="130" font-family="'SF Pro Display','Helvetica Neue',Arial,sans-serif" font-size="38" font-weight="800" fill="white" letter-spacing="2">LLM & AGENT INTERVIEW</text>
  <text x="680" y="185" font-family="'Noto Sans SC','PingFang SC','Microsoft YaHei',sans-serif" font-size="20" font-weight="500" fill="white" opacity="0.9" letter-spacing="2">LLM & Agent 面试题全集</text>
  <text x="680" y="225" font-family="'Noto Sans SC','PingFang SC','Microsoft YaHei',sans-serif" font-size="14" font-weight="300" fill="white" opacity="0.55" letter-spacing="1.5">21 个专题 · 380+ 道题 · 41000+ 行 · 面试全覆盖</text>
  <text x="680" y="275" font-family="'SF Mono','Fira Code','Consolas',monospace" font-size="12" fill="white" opacity="0.4" letter-spacing="1.5">VitePress · Markdown</text>
  <line x1="680" y1="310" x2="1140" y2="310" stroke="white" stroke-width="0.5" opacity="0.12"/>
  <text x="680" y="340" font-family="'SF Mono','Fira Code','Consolas',monospace" font-size="10" fill="white" opacity="0.3" letter-spacing="1">LLM · AGENT · INTERVIEW · AI ENGINEER</text>
</svg>