<svg xmlns="http://www.w3.org/2000/svg" viewBox="0 0 1200 400" width="1200" height="400">
  <defs>
    <linearGradient id="bg" x1="0%" y1="0%" x2="100%" y2="100%">
      <stop offset="0%" style="stop-color:#0a0a0a"/>
      <stop offset="50%" style="stop-color:#111111"/>
      <stop offset="100%" style="stop-color:#0d0d0d"/>
    </linearGradient>
    <radialGradient id="glow1" cx="16%" cy="55%" r="28%">
      <stop offset="0%" style="stop-color:#E74C3C;stop-opacity:0.15"/>
      <stop offset="100%" style="stop-color:#E74C3C;stop-opacity:0"/>
    </radialGradient>
    <radialGradient id="glow2" cx="28%" cy="30%" r="18%">
      <stop offset="0%" style="stop-color:#E74C3C;stop-opacity:0.08"/>
      <stop offset="100%" style="stop-color:#E74C3C;stop-opacity:0"/>
    </radialGradient>
  </defs>
  <rect width="1200" height="400" fill="url(#bg)"/>
  <rect width="1200" height="400" fill="url(#glow1)"/>
  <rect width="1200" height="400" fill="url(#glow2)"/>

  <circle cx="363" cy="318" r="3.0" fill="white" opacity="0.6"/>
  <circle cx="241" cy="238" r="2.6" fill="white" opacity="0.6"/>
  <circle cx="308" cy="26" r="1.6" fill="white" opacity="0.6"/>
  <circle cx="232" cy="261" r="2.3" fill="white" opacity="0.5"/>
  <circle cx="124" cy="264" r="2.4" fill="white" opacity="0.5"/>
  <circle cx="362" cy="310" r="3.5" fill="white" opacity="0.7"/>
  <circle cx="326" cy="45" r="2.1" fill="white" opacity="0.5"/>
  <circle cx="418" cy="227" r="1.8" fill="white" opacity="0.6"/>
  <circle cx="238" cy="130" r="2.4" fill="white" opacity="0.6"/>
  <circle cx="305" cy="262" r="2.5" fill="white" opacity="0.7"/>
  <circle cx="68" cy="307" r="1.5" fill="white" opacity="0.6"/>
  <circle cx="148" cy="279" r="3.1" fill="white" opacity="0.3"/>
  <circle cx="421" cy="219" r="2.7" fill="white" opacity="0.5"/>
  <circle cx="79" cy="278" r="1.7" fill="white" opacity="0.5"/>
  <circle cx="368" cy="211" r="1.6" fill="white" opacity="0.7"/>
  <circle cx="391" cy="372" r="2.6" fill="white" opacity="0.6"/>
  <circle cx="398" cy="126" r="3.0" fill="white" opacity="0.7"/>
  <circle cx="336" cy="305" r="2.4" fill="white" opacity="0.5"/>
  <circle cx="370" cy="78" r="2.9" fill="white" opacity="0.4"/>
  <circle cx="214" cy="254" r="2.8" fill="white" opacity="0.5"/>
  <circle cx="141" cy="244" r="3.4" fill="white" opacity="0.8"/>
  <circle cx="118" cy="150" r="2.2" fill="white" opacity="0.7"/>
  <circle cx="55" cy="206" r="2.4" fill="white" opacity="0.8"/>
  <circle cx="405" cy="43" r="3.4" fill="white" opacity="0.5"/>
  <circle cx="241" cy="208" r="1.6" fill="white" opacity="0.8"/>
  <circle cx="163" cy="241" r="2.1" fill="white" opacity="0.6"/>
  <circle cx="189" cy="177" r="3.5" fill="white" opacity="0.8"/>
  <circle cx="316" cy="258" r="2.2" fill="white" opacity="0.8"/>
  <circle cx="330" cy="234" r="3.1" fill="white" opacity="0.7"/>
  <circle cx="312" cy="146" r="2.7" fill="white" opacity="0.6"/>
  <circle cx="193" cy="241" r="2.5" fill="white" opacity="0.3"/>
  <circle cx="308" cy="136" r="1.8" fill="white" opacity="0.7"/>
  <circle cx="257" cy="204" r="2.8" fill="white" opacity="0.6"/>
  <circle cx="181" cy="361" r="2.5" fill="white" opacity="0.6"/>
  <circle cx="197" cy="290" r="2.9" fill="white" opacity="0.6"/>
  <circle cx="335" cy="323" r="2.7" fill="white" opacity="0.4"/>
  <circle cx="119" cy="127" r="3.0" fill="white" opacity="0.7"/>
  <circle cx="330" cy="175" r="2.9" fill="white" opacity="0.3"/>
  <circle cx="64" cy="132" r="2.7" fill="white" opacity="0.6"/>
  <circle cx="228" cy="365" r="2.4" fill="white" opacity="0.4"/>
  <circle cx="319" cy="192" r="2.0" fill="white" opacity="0.3"/>
  <circle cx="355" cy="340" r="1.6" fill="white" opacity="0.4"/>
  <circle cx="39" cy="134" r="3.0" fill="white" opacity="0.8"/>
  <circle cx="342" cy="274" r="2.4" fill="white" opacity="0.5"/>
  <circle cx="345" cy="212" r="2.0" fill="white" opacity="0.7"/>
  <circle cx="322" cy="48" r="2.7" fill="white" opacity="0.4"/>
  <circle cx="177" cy="107" r="3.3" fill="white" opacity="0.5"/>
  <circle cx="125" cy="370" r="1.9" fill="white" opacity="0.4"/>
  <circle cx="134" cy="192" r="2.3" fill="white" opacity="0.6"/>
  <circle cx="375" cy="111" r="3.3" fill="white" opacity="0.5"/>

  <line x1="103" y1="338" x2="143" y2="309" stroke="white" stroke-width="0.5" opacity="0.12"/>
  <line x1="324" y1="205" x2="380" y2="237" stroke="white" stroke-width="0.5" opacity="0.12"/>
  <line x1="160" y1="40" x2="223" y2="84" stroke="white" stroke-width="0.5" opacity="0.12"/>
  <line x1="80" y1="151" x2="142" y2="181" stroke="white" stroke-width="0.5" opacity="0.12"/>
  <line x1="100" y1="125" x2="150" y2="77" stroke="white" stroke-width="0.5" opacity="0.12"/>
  <line x1="192" y1="196" x2="243" y2="226" stroke="white" stroke-width="0.5" opacity="0.12"/>
  <line x1="78" y1="115" x2="135" y2="151" stroke="white" stroke-width="0.5" opacity="0.12"/>
  <line x1="345" y1="290" x2="391" y2="265" stroke="white" stroke-width="0.5" opacity="0.12"/>
  <line x1="111" y1="66" x2="160" y2="66" stroke="white" stroke-width="0.5" opacity="0.12"/>
  <line x1="264" y1="184" x2="338" y2="206" stroke="white" stroke-width="0.5" opacity="0.12"/>
  <line x1="398" y1="223" x2="445" y2="239" stroke="white" stroke-width="0.5" opacity="0.12"/>
  <line x1="208" y1="317" x2="251" y2="344" stroke="white" stroke-width="0.5" opacity="0.12"/>

  <line x1="480" y1="50" x2="480" y2="350" stroke="white" stroke-width="0.5" opacity="0.12"/>

  <text x="540" y="120" font-family="'SF Pro Display','Helvetica Neue',Arial,sans-serif" font-size="44" font-weight="800" fill="white" letter-spacing="3">LLM &amp; AGENT INTERVIEW</text>
  <text x="540" y="185" font-family="'Noto Sans SC','PingFang SC','Microsoft YaHei',sans-serif" font-size="22" font-weight="500" fill="white" opacity="0.9" letter-spacing="3">LLM &amp; Agent 面试题全集</text>
  <text x="540" y="225" font-family="'Noto Sans SC','PingFang SC','Microsoft YaHei',sans-serif" font-size="14" font-weight="300" fill="white" opacity="0.5" letter-spacing="1.5">21 个专题 · 380+ 道题 · 41000+ 行 · 面试全覆盖</text>
  <text x="540" y="275" font-family="'SF Mono','Fira Code','Consolas',monospace" font-size="12" fill="white" opacity="0.4" letter-spacing="1.5">VitePress · Markdown</text>
  <line x1="540" y1="315" x2="1170" y2="315" stroke="white" stroke-width="0.5" opacity="0.1"/>
  <text x="540" y="345" font-family="'SF Mono','Fira Code','Consolas',monospace" font-size="10" fill="white" opacity="0.3" letter-spacing="1">LLM · AGENT · INTERVIEW · AI ENGINEER</text>
</svg>